# Blender v3.2.0 OBJ File: 'jam boi stuff.blend'
# www.blender.org
mtllib jam boi rost.mtl
o Cube.017_Cube.015
v 33.488041 7.998916 -40.963314
v 32.172424 7.998916 -39.880978
v 33.297928 8.459120 -40.941006
v 33.351566 7.998916 -40.483936
v 33.169964 8.436800 -40.485096
v 32.868656 7.998916 -40.086655
v 32.158073 8.459120 -40.003262
v 32.820683 8.436800 -40.197746
v 28.918272 7.880830 -40.825359
v 30.501772 7.998916 -39.684917
v 29.215067 7.998916 -39.998497
v 29.161427 8.459120 -40.455563
v 29.391466 8.436800 -40.041672
v 30.487421 8.459120 -39.807201
v 29.776836 7.998916 -39.723812
v 29.797787 8.436800 -39.842995
v 33.361931 7.998916 -42.037926
v 31.831472 7.998916 -42.786259
v 33.118179 7.998916 -42.472679
v 33.171818 8.459120 -42.015614
v 32.941776 8.436800 -42.429504
v 31.845823 8.459120 -42.663975
v 32.556408 7.998916 -42.747364
v 32.535458 8.436800 -42.628181
v 30.160820 7.998916 -42.590199
v 28.884384 7.880830 -41.114124
v 29.464586 7.998916 -42.384521
v 30.175171 8.459120 -42.467915
v 29.512564 8.436800 -42.273430
v 29.035316 8.459120 -41.530170
v 28.981676 7.998916 -41.987240
v 29.163279 8.436800 -41.986080
v 33.264214 5.773854 -40.956074
v 33.600262 5.917388 -40.950153
v 32.126514 5.773854 -40.020107
v 32.221046 5.917388 -39.815491
v 33.143734 5.773854 -40.533745
v 33.456738 5.917388 -40.446953
v 32.739830 5.773854 -40.201458
v 32.951805 5.917388 -40.031555
v 30.514219 5.773854 -39.830898
v 30.469631 5.917388 -39.609955
v 29.190739 5.773854 -40.478027
v 28.823872 6.035474 -40.806408
v 29.875584 5.773854 -39.865322
v 29.708702 5.917388 -39.650959
v 29.405720 5.773854 -40.095070
v 29.121317 5.917388 -39.938168
v 31.819025 5.773854 -42.640278
v 31.863613 5.917388 -42.861221
v 33.142506 5.773854 -41.993149
v 33.468056 5.917388 -42.076710
v 32.457661 5.773854 -42.605854
v 32.624542 5.917388 -42.820217
v 32.927525 5.773854 -42.376106
v 33.211929 5.917388 -42.533009
v 29.069033 5.773854 -41.515102
v 28.788160 6.035474 -41.110706
v 30.206728 5.773854 -42.451069
v 30.112198 5.917388 -42.655685
v 29.189508 5.773854 -41.937431
v 28.876507 5.917388 -42.024223
v 29.593416 5.773854 -42.269718
v 29.381437 5.917388 -42.439621
v 29.842606 5.773854 -40.146339
v 30.468580 5.773854 -40.219803
v 32.080875 5.773854 -40.409012
v 32.706848 5.773854 -40.482475
v 29.626394 5.773854 -41.988701
v 30.252369 5.773854 -42.062160
v 31.864664 5.773854 -42.251373
v 32.490639 5.773854 -42.324837
v 32.243237 5.629741 -40.125099
v 32.607121 5.629741 -40.232693
v 29.997454 5.629741 -39.926434
v 30.376364 5.629741 -39.906010
v 30.090008 5.629741 -42.346077
v 29.726122 5.629741 -42.238483
v 32.335793 5.629741 -42.544743
v 31.956881 5.629741 -42.565166
v 29.745689 5.629741 -42.071751
v 30.117088 5.629741 -42.115337
v 31.983959 5.629741 -42.334423
v 32.355358 5.629741 -42.378010
v 29.977886 5.629741 -40.093166
v 30.349285 5.629741 -40.136753
v 32.216156 5.629741 -40.355839
v 32.587555 5.629741 -40.399426
v 32.750149 7.370611 -41.096497
v 32.768330 7.254682 -40.643856
v 32.039562 7.493735 -41.013107
v 32.094265 7.370611 -40.546970
v 30.423615 7.370611 -40.350910
v 30.368910 7.493735 -40.817047
v 29.658325 7.370611 -40.733654
v 29.745434 7.254682 -40.289101
v 31.909630 7.370611 -42.120266
v 31.964334 7.493735 -41.654129
v 32.674919 7.370611 -41.737522
v 32.587811 7.254682 -42.182076
v 29.583097 7.370611 -41.374680
v 30.293682 7.493735 -41.458069
v 30.238979 7.370611 -41.924206
v 29.564917 7.254682 -41.827324
v 32.029144 8.920534 -41.101879
v 32.039562 8.829118 -41.013107
v 32.094265 8.706037 -40.546970
v 32.103157 8.750262 -40.471195
v 32.819065 8.745906 -41.196213
v 32.750309 8.705541 -41.096516
v 32.768326 8.589635 -40.643970
v 32.878326 8.607183 -40.585812
v 30.368910 8.829118 -40.817047
v 30.358492 8.920534 -40.905819
v 29.568193 8.745906 -40.814705
v 29.658306 8.705541 -40.733753
v 30.432507 8.750262 -40.275135
v 30.423615 8.706037 -40.350910
v 29.651863 8.607183 -40.207169
v 29.745253 8.589635 -40.289085
v 31.964334 8.829118 -41.654129
v 31.974752 8.920534 -41.565357
v 32.765053 8.745906 -41.656471
v 32.674938 8.705541 -41.737423
v 31.900738 8.750262 -42.196041
v 31.909630 8.706037 -42.120266
v 32.681381 8.607183 -42.264011
v 32.587994 8.589635 -42.182091
v 30.304100 8.920534 -41.369297
v 30.293682 8.829118 -41.458069
v 30.238979 8.706037 -41.924206
v 30.230085 8.750262 -41.999981
v 29.582935 8.705541 -41.374660
v 29.514179 8.745906 -41.274963
v 29.454916 8.607183 -41.885365
v 29.564920 8.589635 -41.827206
v 28.977623 8.319462 -41.523399
v 29.103733 8.319462 -40.448792
v 28.865189 5.917388 -40.394466
v 28.732981 5.917388 -41.521023
v 29.023842 7.651073 -41.130493
v 29.057730 7.651073 -40.841728
v 28.963327 6.027176 -40.822773
v 28.927616 6.027176 -41.127071
vt 0.387267 0.039386
vt 0.546235 0.039434
vt 0.546235 0.078765
vt 0.387267 0.078765
vt 0.546235 0.828765
vt 0.387267 0.828765
vt 0.387267 0.789386
vt 0.546235 0.789434
vt 0.835566 0.671235
vt 0.833658 0.708659
vt 0.833658 0.708658
vt 0.835566 0.671235
vt 0.387267 0.000000
vt 0.546235 0.000000
vt 0.546235 0.289434
vt 0.387267 0.289386
vt 0.387267 0.210614
vt 0.546235 0.210566
vt 0.546235 0.921235
vt 0.625000 0.921235
vt 0.625000 0.958658
vt 0.546235 1.000000
vt 0.833649 0.708659
vt 0.796235 0.710566
vt 0.796235 0.710566
vt 0.786234 0.532945
vt 0.796235 0.500000
vt 0.833658 0.500000
vt 0.834713 0.529496
vt 0.841062 0.671235
vt 0.841062 0.578765
vt 0.875000 0.578765
vt 0.875000 0.671235
vt 0.625000 0.041342
vt 0.625000 0.078765
vt 0.625000 0.000000
vt 0.796235 0.578765
vt 0.796235 0.539434
vt 0.796235 0.539434
vt 0.796235 0.578765
vt 0.703765 0.500000
vt 0.713766 0.532945
vt 0.665287 0.529496
vt 0.666342 0.500000
vt 0.781144 0.533430
vt 0.718856 0.533430
vt 0.601097 0.328765
vt 0.625000 0.291342
vt 0.625000 0.328765
vt 0.625000 0.208658
vt 0.546235 0.171235
vt 0.625000 0.171235
vt 0.835074 0.530204
vt 0.875000 0.541342
vt 0.703765 0.671235
vt 0.703765 0.710566
vt 0.703765 0.710566
vt 0.703765 0.671235
vt 0.833658 0.750000
vt 0.835074 0.719796
vt 0.875000 0.708658
vt 0.666342 0.708668
vt 0.664434 0.671235
vt 0.664434 0.671235
vt 0.666342 0.708658
vt 0.625000 0.791342
vt 0.625000 0.828765
vt 0.546235 0.710566
vt 0.583658 0.708658
vt 0.546235 0.671235
vt 0.585566 0.671235
vt 0.653442 0.578765
vt 0.653442 0.671235
vt 0.585566 0.578765
vt 0.703765 0.539425
vt 0.703765 0.578765
vt 0.703765 0.578765
vt 0.703765 0.539434
vt 0.666351 0.541341
vt 0.666342 0.541342
vt 0.664434 0.578765
vt 0.666342 0.541341
vt 0.664434 0.578765
vt 0.546235 0.578765
vt 0.546235 0.539434
vt 0.583658 0.541342
vt 0.546235 0.460566
vt 0.625000 0.458658
vt 0.601097 0.421235
vt 0.625000 0.421235
vt 0.665626 0.530204
vt 0.645430 0.541342
vt 0.387267 0.921235
vt 0.387267 0.171235
vt 0.783429 0.578765
vt 0.716571 0.578765
vt 0.716803 0.534227
vt 0.783197 0.534227
vt 0.835566 0.578765
vt 0.835566 0.578765
vt 0.397359 0.338467
vt 0.536143 0.338793
vt 0.536143 0.338793
vt 0.397359 0.338467
vt 0.387267 0.710614
vt 0.387267 0.671235
vt 0.387267 0.328765
vt 0.833657 0.541342
vt 0.833658 0.541342
vt 0.387267 0.539386
vt 0.387267 0.460614
vt 0.387267 0.578765
vt 0.650176 0.535409
vt 0.387267 0.421235
vt 0.796235 0.671235
vt 0.796235 0.671235
vt 0.796235 0.750000
vt 0.786234 0.717055
vt 0.834713 0.720504
vt 0.387267 1.000000
vt 0.170732 0.728449
vt 0.205380 0.737733
vt 0.203765 0.750000
vt 0.164386 0.739449
vt 0.146551 0.704268
vt 0.135552 0.710618
vt 0.137267 0.669620
vt 0.125000 0.671235
vt 0.205380 0.512267
vt 0.170732 0.521551
vt 0.164386 0.510551
vt 0.203765 0.500000
vt 0.146551 0.545732
vt 0.135552 0.539382
vt 0.137267 0.580380
vt 0.125000 0.578765
vt 0.362733 0.580380
vt 0.353449 0.545732
vt 0.364449 0.539386
vt 0.375000 0.578765
vt 0.329268 0.521551
vt 0.335618 0.510552
vt 0.294620 0.512267
vt 0.296235 0.500000
vt 0.294620 0.737733
vt 0.329268 0.728449
vt 0.335614 0.739449
vt 0.296235 0.750000
vt 0.353449 0.704268
vt 0.364448 0.710618
vt 0.362733 0.669620
vt 0.375000 0.671235
vt 0.329268 0.545732
vt 0.353449 0.704268
vt 0.362733 0.669620
vt 0.329268 0.580380
vt 0.329268 0.669620
vt 0.329268 0.580380
vt 0.362733 0.580380
vt 0.329268 0.704268
vt 0.170732 0.704268
vt 0.146551 0.704268
vt 0.170732 0.704268
vt 0.170732 0.580380
vt 0.170732 0.669620
vt 0.353449 0.545732
vt 0.170732 0.545732
vt 0.329268 0.545732
vt 0.329268 0.669620
vt 0.329268 0.704268
vt 0.137267 0.669620
vt 0.170732 0.669620
vt 0.146551 0.545732
vt 0.170732 0.545732
vt 0.170732 0.580380
vt 0.137267 0.580380
vt 0.783429 0.671235
vt 0.716571 0.671235
vt 0.841590 0.535409
vt 0.718856 0.716570
vt 0.781144 0.716570
vt 0.703765 0.750000
vt 0.665626 0.719796
vt 0.666342 0.750000
vt 0.645430 0.708658
vt 0.783197 0.715773
vt 0.716803 0.715773
vt 0.713766 0.717055
vt 0.665287 0.720504
vt 0.841590 0.714591
vt 0.650176 0.714591
vt 0.536143 0.411207
vt 0.397359 0.411533
vt 0.536143 0.411207
vt 0.397359 0.411533
vn 0.4274 -0.4593 0.7787
vn 0.4616 0.1514 0.8741
vn 0.1983 0.1478 0.9689
vn 0.1828 -0.4499 0.8742
vn 0.9294 0.2163 -0.2990
vn 0.8250 -0.4982 -0.2667
vn 0.6124 -0.4759 -0.6313
vn 0.6845 0.1886 -0.7042
vn -0.0616 0.5277 -0.8472
vn -0.4516 0.7732 -0.4452
vn -0.5506 0.7104 -0.4384
vn -0.0190 0.7695 -0.6384
vn 0.7419 -0.4759 0.4723
vn 0.8290 0.1886 0.5265
vn -0.7131 0.1656 0.6812
vn -0.6360 -0.4741 0.6088
vn -0.2355 -0.4593 0.8565
vn -0.2467 0.1514 0.9572
vn 0.9734 0.2163 0.0757
vn 0.7584 0.6460 0.0867
vn 0.6536 0.6016 0.4592
vn -0.2237 0.7171 0.6601
vn -0.5017 0.5426 0.6737
vn -0.2900 0.9361 0.1990
vn -0.7167 0.6468 0.2607
vn -0.5284 0.6022 0.5985
vn -0.1767 0.9425 0.2838
vn 0.0813 0.9967 0.0074
vn -0.0774 0.9967 0.0260
vn 0.0108 0.5964 0.8026
vn 0.1753 0.5964 0.7833
vn 0.3843 0.5794 0.7187
vn 0.0608 0.4206 0.9052
vn 0.3703 0.7168 0.5908
vn 0.6440 0.5426 0.5393
vn 0.0444 0.5868 0.8085
vn -0.7576 0.6468 -0.0877
vn -0.3283 0.9361 -0.1264
vn -0.2377 0.9424 -0.2352
vn -0.6526 0.6022 -0.4599
vn -0.9103 0.2898 0.2956
vn -0.2074 0.5794 0.7882
vn 0.0315 0.1478 0.9885
vn -0.0608 0.4206 -0.9052
vn -0.3704 0.7168 -0.5908
vn -0.6440 0.5426 -0.5393
vn -0.0444 0.5868 -0.8085
vn 0.2377 0.9425 0.2352
vn -0.3362 0.7733 0.5375
vn 0.1363 0.5276 0.8385
vn 0.1294 0.7695 0.6254
vn -0.4342 0.7104 0.5539
vn 0.5295 0.6016 -0.5980
vn 0.7177 0.6460 -0.2600
vn 0.2467 0.1514 -0.9572
vn 0.2074 0.5794 -0.7882
vn -0.0315 0.1478 -0.9885
vn -0.0108 0.5964 -0.8026
vn -0.0813 0.9967 -0.0074
vn 0.0774 0.9967 -0.0260
vn -0.1753 0.5964 -0.7833
vn 0.2237 0.7171 -0.6601
vn -0.1504 0.4207 -0.8946
vn -0.1440 0.5868 -0.7969
vn 0.5017 0.5426 -0.6737
vn 0.4516 0.7732 0.4452
vn 0.5506 0.7103 0.4384
vn 0.0616 0.5277 0.8472
vn 0.0190 0.7695 0.6384
vn -0.1983 0.1478 -0.9689
vn -0.4616 0.1514 -0.8741
vn -0.3843 0.5794 -0.7187
vn -0.8515 0.1656 -0.4976
vn -0.9540 0.2898 -0.0768
vn 0.8644 -0.4982 0.0684
vn 0.0246 -0.4499 0.8927
vn -0.0551 0.9302 0.3629
vn -0.1376 0.9302 -0.3402
vn -0.1363 0.5276 -0.8385
vn -0.1294 0.7695 -0.6254
vn -0.9183 0.3649 -0.1533
vn -0.9976 0.0109 0.0679
vn -0.8121 -0.1872 -0.5526
vn -0.6071 0.6087 -0.5109
vn 0.2355 -0.4593 -0.8565
vn -0.0246 -0.4499 -0.8927
vn -0.8317 -0.4845 0.2710
vn 0.3362 0.7733 -0.5375
vn 0.4342 0.7104 -0.5539
vn -0.4274 -0.4593 -0.7787
vn -0.7597 -0.4741 -0.4450
vn -0.1828 -0.4499 -0.8742
vn -0.8719 -0.4845 -0.0711
vn 0.1504 0.4207 0.8946
vn 0.1440 0.5868 0.7969
vn 0.3283 0.9361 0.1264
vn 0.2066 -0.9656 0.1576
vn 0.2240 -0.9744 0.0200
vn 0.3244 -0.8674 0.3772
vn -0.0468 -0.9009 0.4314
vn -0.2132 -0.9744 0.0713
vn -0.1645 -0.9656 0.2012
vn -0.2283 -0.8674 0.4421
vn 0.1454 -0.9009 0.4089
vn 0.0468 -0.9009 -0.4314
vn -0.3244 -0.8674 -0.3773
vn -0.2066 -0.9656 -0.1576
vn -0.2240 -0.9744 -0.0200
vn 0.2132 -0.9744 -0.0713
vn 0.1645 -0.9656 -0.2012
vn 0.2283 -0.8674 -0.4421
vn -0.1454 -0.9009 -0.4089
vn -0.1355 -0.9793 0.1505
vn 0.3103 -0.8310 -0.4616
vn -0.3141 -0.8449 -0.4331
vn 0.1666 -0.9793 0.1151
vn 0.3643 -0.8377 0.4068
vn 0.2053 -0.8449 -0.4940
vn 0.1667 -0.9793 0.1151
vn 0.1355 -0.9793 -0.1505
vn 0.4087 -0.8310 0.3772
vn 0.2602 -0.8377 -0.4801
vn -0.1667 -0.9793 -0.1151
vn -0.4087 -0.8310 -0.3772
vn -0.2603 -0.8377 0.4801
vn -0.2602 -0.8377 0.4801
vn -0.2053 -0.8449 0.4940
vn -0.3643 -0.8377 -0.4068
vn -0.3103 -0.8310 0.4616
vn 0.3141 -0.8449 0.4331
vn 0.1376 0.9302 0.3402
vn 0.0551 0.9302 -0.3629
vn 0.2900 0.9361 -0.1990
vn 0.1768 0.9425 -0.2838
vn -0.9863 0.0109 0.1649
vn -0.8579 0.3650 0.3618
vn -0.6621 -0.1872 0.7257
vn -0.4723 0.6087 0.6375
usemtl None
s 1
f 40/1/1 6/2/2 2/3/3 36/4/4
f 17/5/5 52/6/6 56/7/7 19/8/8
f 107/9/9 111/10/10 90/11/11 92/12/12
f 38/13/13 4/14/14 6/2/2 40/1/1
f 11/15/15 48/16/16 46/17/17 15/18/18
f 1/19/19 3/20/20 5/21/21 4/22/14
f 111/23/10 110/24/22 89/25/23 90/11/11
f 115/26/24 12/27/25 13/28/26 119/29/27
f 108/30/28 117/31/29 14/32/30 7/33/31
f 2/3/3 6/2/2 8/34/32 7/35/31
f 6/2/2 4/14/14 5/36/21 8/34/32
f 113/37/33 116/38/34 95/39/35 94/40/36
f 30/41/37 134/42/38 135/43/39 32/44/40
f 115/45/24 134/46/38 30/41/37 12/27/25
f 138/47/41 11/15/15 13/48/26 12/49/25
f 11/15/15 15/18/18 16/50/42 13/48/26
f 10/51/43 14/52/30 16/50/42 15/18/18
f 119/53/27 13/28/26 16/54/42
f 121/55/44 124/56/45 99/57/46 98/58/47
f 5/59/21 112/60/48 8/61/32
f 128/62/49 126/63/50 97/64/51 100/65/52
f 17/5/5 19/8/8 21/66/53 20/67/54
f 19/8/8 23/68/55 24/69/56 21/66/53
f 18/70/57 22/71/58 24/69/56 23/68/55
f 132/72/59 125/73/60 22/71/58 28/74/61
f 133/75/62 130/76/63 102/77/64 101/78/65
f 136/79/66 133/75/62 101/78/65 104/80/67
f 131/81/68 136/82/66 104/80/67 103/83/69
f 25/84/70 27/85/71 29/86/72 28/74/61
f 27/85/71 31/87/73 32/88/40 29/86/72
f 137/89/74 30/90/37 32/88/40 31/87/73
f 135/91/39 29/92/72 32/44/40
f 52/6/6 17/5/5 1/19/19 34/93/75
f 15/18/18 46/17/17 42/94/76 10/51/43
f 36/4/4 2/3/3 10/51/43 42/94/76
f 114/95/77 129/96/78 134/97/38 115/98/24
f 118/99/79 107/9/9 92/12/12 93/100/80
f 7/35/31 14/52/30 10/51/43 2/3/3
f 44/101/81 9/102/82 142/103/83 143/104/84
f 23/68/55 54/105/85 50/106/86 18/70/57
f 138/47/41 139/107/87 48/16/16 11/15/15
f 116/38/34 120/108/88 96/109/89 95/39/35
f 120/108/88 118/99/79 93/100/80 96/109/89
f 12/49/25 30/90/37 137/89/74 138/47/41
f 27/85/71 64/110/90 62/111/91 31/87/73
f 25/84/70 60/112/92 64/110/90 27/85/71
f 132/72/59 28/74/61 29/86/72 135/113/39
f 126/63/50 131/81/68 103/83/69 97/64/51
f 28/74/61 22/71/58 18/70/57 25/84/70
f 19/8/8 56/7/7 54/105/85 23/68/55
f 31/87/73 62/111/91 140/114/93 137/89/74
f 60/112/92 25/84/70 18/70/57 50/106/86
f 106/115/94 113/37/33 94/40/36 91/116/95
f 3/117/20 109/118/96 112/119/48 5/59/21
f 20/67/54 3/20/20 1/19/19 17/5/5
f 34/93/75 1/19/19 4/22/14 38/120/13
f 37/121/97 33/122/98 34/123/75 38/124/13
f 39/125/99 37/121/97 38/124/13 40/126/1
f 35/127/100 39/125/99 40/126/1 36/128/4
f 43/129/101 47/130/102 48/131/16 139/132/87
f 47/130/102 45/133/103 46/134/17 48/131/16
f 45/133/103 41/135/104 42/136/76 46/134/17
f 59/137/105 63/138/106 64/139/90 60/140/92
f 63/138/106 61/141/107 62/142/91 64/139/90
f 61/141/107 57/143/108 140/144/93 62/142/91
f 51/145/109 55/146/110 56/147/7 52/148/6
f 55/146/110 53/149/111 54/150/85 56/147/7
f 53/149/111 49/151/112 50/152/86 54/150/85
f 36/128/4 42/136/76 41/135/104 35/127/100
f 139/132/87 140/144/93 57/143/108 43/129/101
f 60/112/92 50/106/86 49/151/112 59/137/105
f 52/148/6 34/123/75 33/122/98 51/145/109
f 43/129/101 57/143/108 61/141/107 47/130/102
f 61/141/107 63/138/106 69/153/113
f 49/151/112 53/149/111 79/154/114 80/155/115
f 70/156/116 59/137/105 49/151/112 71/157/113
f 59/137/105 70/156/116 82/158/117 77/159/118
f 72/160/119 53/149/111 55/146/110
f 37/121/97 55/146/110 51/145/109 33/122/98
f 68/161/120 39/125/99 74/162/121 88/163/122
f 41/135/104 66/164/120 67/165/123 35/127/100
f 63/138/106 59/137/105 77/159/118 78/166/124
f 45/133/103 47/130/102 65/167/123
f 39/125/99 68/161/120 37/121/97
f 67/165/123 71/157/113 72/160/119 68/161/120
f 66/164/120 70/156/116 71/157/113 67/165/123
f 65/167/123 69/153/113 70/156/116 66/164/120
f 47/130/102 61/141/107 69/153/113 65/167/123
f 68/161/120 72/160/119 55/146/110 37/121/97
f 81/168/125 78/166/124 77/159/118 82/158/117
f 83/169/126 80/155/115 79/154/114 84/170/117
f 73/171/127 87/172/128 88/163/122 74/162/121
f 75/173/129 85/174/128 86/175/122 76/176/130
f 67/165/123 68/161/120 88/163/122 87/172/128
f 71/157/113 49/151/112 80/155/115 83/169/126
f 39/125/99 35/127/100 73/171/127 74/162/121
f 53/149/111 72/160/119 84/170/117 79/154/114
f 72/160/119 71/157/113 83/169/126 84/170/117
f 65/167/123 66/164/120 86/175/122 85/174/128
f 41/135/104 45/133/103 75/173/129 76/176/130
f 45/133/103 65/167/123 85/174/128 75/173/129
f 70/156/116 69/153/113 81/168/125 82/158/117
f 66/164/120 41/135/104 76/176/130 86/175/122
f 35/127/100 67/165/123 87/172/128 73/171/127
f 69/153/113 63/138/106 78/166/124 81/168/125
f 91/116/95 92/12/12 90/11/11 89/25/23
f 94/40/36 95/39/35 96/109/89 93/100/80
f 98/58/47 99/57/46 100/65/52 97/64/51
f 102/77/64 103/83/69 104/80/67 101/78/65
f 91/116/95 94/40/36 93/100/80 92/12/12
f 102/77/64 98/58/47 97/64/51 103/83/69
f 129/96/78 114/95/77 105/177/131 122/178/132
f 124/56/45 128/62/49 100/65/52 99/57/46
f 14/32/30 117/31/29 119/179/27 16/54/42
f 123/180/133 109/181/96 3/117/20 20/182/54
f 127/183/134 21/184/53 24/185/56
f 122/178/132 105/177/131 109/186/96 123/187/133
f 130/76/63 121/55/44 98/58/47 102/77/64
f 123/188/133 20/182/54 21/184/53 127/189/134
f 108/30/28 7/33/31 8/61/32 112/190/48
f 22/71/58 125/73/60 127/191/134 24/69/56
f 110/24/22 111/23/10 112/119/48 109/118/96
f 109/186/96 105/177/131 106/115/94 110/24/22
f 108/30/28 112/190/48 111/10/10 107/9/9
f 114/95/77 115/98/24 116/38/34 113/37/33
f 115/26/24 119/29/27 120/108/88 116/38/34
f 119/179/27 117/31/29 118/99/79 120/108/88
f 122/178/132 123/187/133 124/56/45 121/55/44
f 123/188/133 127/189/134 128/62/49 124/56/45
f 127/191/134 125/73/60 126/63/50 128/62/49
f 134/97/38 129/96/78 130/76/63 133/75/62
f 132/72/59 135/113/39 136/82/66 131/81/68
f 135/43/39 134/42/38 133/75/62 136/79/66
f 105/177/131 114/95/77 113/37/33 106/115/94
f 117/31/29 108/30/28 107/9/9 118/99/79
f 129/96/78 122/178/132 121/55/44 130/76/63
f 125/73/60 132/72/59 131/81/68 126/63/50
f 110/24/22 106/115/94 91/116/95 89/25/23
f 26/192/135 9/102/82 138/47/41 137/89/74
f 44/101/81 58/193/136 140/114/93 139/107/87
f 9/102/82 44/101/81 139/107/87 138/47/41
f 58/193/136 26/192/135 137/89/74 140/114/93
f 143/104/84 142/103/83 141/194/137 144/195/138
f 9/102/82 26/192/135 141/194/137 142/103/83
f 26/192/135 58/193/136 144/195/138 141/194/137
f 58/193/136 44/101/81 143/104/84 144/195/138
